<svg width="655" height="414" viewBox="0 0 655 414" fill="none" xmlns="http://www.w3.org/2000/svg">
<g id="undraw_Freelancer_re_irh4 1" clip-path="url(#clip0)">
<g id="bookcase">
<path id="Vector" d="M429.059 58H417.059C415.866 57.9987 414.722 57.5241 413.879 56.6805C413.035 55.8369 412.56 54.6931 412.559 53.5V4.5C412.56 3.30694 413.035 2.16314 413.879 1.31952C414.722 0.475897 415.866 0.00134456 417.059 0H429.059C430.252 0.00134456 431.396 0.475897 432.24 1.31952C433.083 2.16314 433.558 3.30694 433.559 4.5V53.5C433.558 54.6931 433.083 55.8369 432.24 56.6805C431.396 57.5241 430.252 57.9987 429.059 58Z" fill="#F2F2F2"/>
<path id="Vector_2" d="M433.059 9.5H413.059V13.5H433.059V9.5Z" fill="#CCCCCC"/>
<path id="Vector_3" d="M433.059 40.5H413.059V44.5H433.059V40.5Z" fill="#CCCCCC"/>
<path id="Vector_4" d="M459.059 58H447.059C445.866 57.9987 444.722 57.5241 443.879 56.6805C443.035 55.8369 442.56 54.6931 442.559 53.5V4.5C442.56 3.30694 443.035 2.16314 443.879 1.31952C444.722 0.475897 445.866 0.00134456 447.059 0H459.059C460.252 0.00134456 461.396 0.475897 462.24 1.31952C463.083 2.16314 463.558 3.30694 463.559 4.5V53.5C463.558 54.6931 463.083 55.8369 462.24 56.6805C461.396 57.5241 460.252 57.9987 459.059 58Z" fill="#F2F2F2"/>
<path id="Vector_5" d="M463.059 9.5H443.059V13.5H463.059V9.5Z" fill="#CCCCCC"/>
<path id="Vector_6" d="M463.059 40.5H443.059V44.5H463.059V40.5Z" fill="#CCCCCC"/>
<path id="Vector_7" d="M489.059 58H477.059C475.866 57.9987 474.722 57.5241 473.879 56.6805C473.035 55.8369 472.56 54.6931 472.559 53.5V4.5C472.56 3.30694 473.035 2.16314 473.879 1.31952C474.722 0.475897 475.866 0.00134456 477.059 0H489.059C490.252 0.00134456 491.396 0.475897 492.24 1.31952C493.083 2.16314 493.558 3.30694 493.559 4.5V53.5C493.558 54.6931 493.083 55.8369 492.24 56.6805C491.396 57.5241 490.252 57.9987 489.059 58Z" fill="#F2F2F2"/>
<path id="Vector_8" d="M493.059 9.5H473.059V13.5H493.059V9.5Z" fill="#CCCCCC"/>
<path id="Vector_9" d="M493.059 40.5H473.059V44.5H493.059V40.5Z" fill="#CCCCCC"/>
<path id="Vector_10" d="M505.059 139H493.059C491.866 138.999 490.722 138.524 489.879 137.68C489.035 136.837 488.56 135.693 488.559 134.5V85.5C488.56 84.3069 489.035 83.1631 489.879 82.3195C490.722 81.4759 491.866 81.0014 493.059 81H505.059C506.252 81.0014 507.396 81.4759 508.24 82.3195C509.083 83.1631 509.558 84.3069 509.559 85.5V134.5C509.558 135.693 509.083 136.837 508.24 137.68C507.396 138.524 506.252 138.999 505.059 139Z" fill="#F2F2F2"/>
<path id="Vector_11" d="M509.059 90.5H489.059V94.5H509.059V90.5Z" fill="#CCCCCC"/>
<path id="Vector_12" d="M509.059 121.5H489.059V125.5H509.059V121.5Z" fill="#CCCCCC"/>
<path id="Vector_13" d="M535.059 139H523.059C521.866 138.999 520.722 138.524 519.879 137.68C519.035 136.837 518.56 135.693 518.559 134.5V85.5C518.56 84.3069 519.035 83.1631 519.879 82.3195C520.722 81.4759 521.866 81.0014 523.059 81H535.059C536.252 81.0014 537.396 81.4759 538.24 82.3195C539.083 83.1631 539.558 84.3069 539.559 85.5V134.5C539.558 135.693 539.083 136.837 538.24 137.68C537.396 138.524 536.252 138.999 535.059 139Z" fill="#F2F2F2"/>
<path id="Vector_14" d="M539.059 90.5H519.059V94.5H539.059V90.5Z" fill="#CCCCCC"/>
<path id="Vector_15" d="M539.059 121.5H519.059V125.5H539.059V121.5Z" fill="#CCCCCC"/>
<path id="Vector_16" d="M565.059 139H553.059C551.866 138.999 550.722 138.524 549.879 137.68C549.035 136.837 548.56 135.693 548.559 134.5V85.5C548.56 84.3069 549.035 83.1631 549.879 82.3195C550.722 81.4759 551.866 81.0014 553.059 81H565.059C566.252 81.0014 567.396 81.4759 568.24 82.3195C569.083 83.1631 569.558 84.3069 569.559 85.5V134.5C569.558 135.693 569.083 136.837 568.24 137.68C567.396 138.524 566.252 138.999 565.059 139Z" fill="#F2F2F2"/>
<path id="Vector_17" d="M569.059 90.5H549.059V94.5H569.059V90.5Z" fill="#CCCCCC"/>
<path id="Vector_18" d="M569.059 121.5H549.059V125.5H569.059V121.5Z" fill="#CCCCCC"/>
<path id="Vector_19" d="M426.059 220H414.059C412.866 219.999 411.722 219.524 410.879 218.68C410.035 217.837 409.56 216.693 409.559 215.5V166.5C409.56 165.307 410.035 164.163 410.879 163.32C411.722 162.476 412.866 162.001 414.059 162H426.059C427.252 162.001 428.396 162.476 429.24 163.32C430.083 164.163 430.558 165.307 430.559 166.5V215.5C430.558 216.693 430.083 217.837 429.24 218.68C428.396 219.524 427.252 219.999 426.059 220Z" fill="#F2F2F2"/>
<path id="Vector_20" d="M430.059 171.5H410.059V175.5H430.059V171.5Z" fill="#CCCCCC"/>
<path id="Vector_21" d="M430.059 202.5H410.059V206.5H430.059V202.5Z" fill="#CCCCCC"/>
<path id="Vector_22" d="M456.059 220H444.059C442.866 219.999 441.722 219.524 440.879 218.68C440.035 217.837 439.56 216.693 439.559 215.5V166.5C439.56 165.307 440.035 164.163 440.879 163.32C441.722 162.476 442.866 162.001 444.059 162H456.059C457.252 162.001 458.396 162.476 459.24 163.32C460.083 164.163 460.558 165.307 460.559 166.5V215.5C460.558 216.693 460.083 217.837 459.24 218.68C458.396 219.524 457.252 219.999 456.059 220Z" fill="#F2F2F2"/>
<path id="Vector_23" d="M460.059 171.5H440.059V175.5H460.059V171.5Z" fill="#CCCCCC"/>
<path id="Vector_24" d="M460.059 202.5H440.059V206.5H460.059V202.5Z" fill="#CCCCCC"/>
<path id="Vector_25" d="M486.059 220H474.059C472.866 219.999 471.722 219.524 470.879 218.68C470.035 217.837 469.56 216.693 469.559 215.5V166.5C469.56 165.307 470.035 164.163 470.879 163.32C471.722 162.476 472.866 162.001 474.059 162H486.059C487.252 162.001 488.396 162.476 489.24 163.32C490.083 164.163 490.558 165.307 490.559 166.5V215.5C490.558 216.693 490.083 217.837 489.24 218.68C488.396 219.524 487.252 219.999 486.059 220Z" fill="#F2F2F2"/>
<path id="Vector_26" d="M490.059 171.5H470.059V175.5H490.059V171.5Z" fill="#CCCCCC"/>
<path id="Vector_27" d="M490.059 202.5H470.059V206.5H490.059V202.5Z" fill="#CCCCCC"/>
<path id="Vector_28" d="M519.059 58H507.059C505.866 57.9987 504.722 57.5241 503.879 56.6805C503.035 55.8369 502.56 54.6931 502.559 53.5V4.5C502.56 3.30694 503.035 2.16314 503.879 1.31952C504.722 0.475897 505.866 0.00134456 507.059 0H519.059C520.252 0.00134456 521.396 0.475897 522.24 1.31952C523.083 2.16314 523.558 3.30694 523.559 4.5V53.5C523.558 54.6931 523.083 55.8369 522.24 56.6805C521.396 57.5241 520.252 57.9987 519.059 58Z" fill="#F2F2F2"/>
<path id="Vector_29" d="M523.059 9.5H503.059V13.5H523.059V9.5Z" fill="#CCCCCC"/>
<path id="Vector_30" d="M523.059 40.5H503.059V44.5H523.059V40.5Z" fill="#CCCCCC"/>
<path id="Vector_31" d="M549.059 58H537.059C535.866 57.9987 534.722 57.5241 533.879 56.6805C533.035 55.8369 532.56 54.6931 532.559 53.5V4.5C532.56 3.30694 533.035 2.16314 533.879 1.31952C534.722 0.475897 535.866 0.00134456 537.059 0H549.059C550.252 0.00134456 551.396 0.475897 552.24 1.31952C553.083 2.16314 553.558 3.30694 553.559 4.5V53.5C553.558 54.6931 553.083 55.8369 552.24 56.6805C551.396 57.5241 550.252 57.9987 549.059 58Z" fill="#F2F2F2"/>
<path id="Vector_32" d="M553.059 9.5H533.059V13.5H553.059V9.5Z" fill="#CCCCCC"/>
<path id="Vector_33" d="M553.059 40.5H533.059V44.5H553.059V40.5Z" fill="#CCCCCC"/>
<path id="Vector_34" d="M579.059 58H567.059C565.866 57.9987 564.722 57.5241 563.879 56.6805C563.035 55.8369 562.56 54.6931 562.559 53.5V4.5C562.56 3.30694 563.035 2.16314 563.879 1.31952C564.722 0.475897 565.866 0.00134456 567.059 0H579.059C580.252 0.00134456 581.396 0.475897 582.24 1.31952C583.083 2.16314 583.558 3.30694 583.559 4.5V53.5C583.558 54.6931 583.083 55.8369 582.24 56.6805C581.396 57.5241 580.252 57.9987 579.059 58Z" fill="#F2F2F2"/>
<path id="Vector_35" d="M583.059 9.5H563.059V13.5H583.059V9.5Z" fill="#CCCCCC"/>
<path id="Vector_36" d="M583.059 40.5H563.059V44.5H583.059V40.5Z" fill="#CCCCCC"/>
<path id="Vector_37" d="M609.059 58H597.059C595.866 57.9987 594.722 57.5241 593.879 56.6805C593.035 55.8369 592.56 54.6931 592.559 53.5V4.5C592.56 3.30694 593.035 2.16314 593.879 1.31952C594.722 0.475897 595.866 0.00134456 597.059 0H609.059C610.252 0.00134456 611.396 0.475897 612.24 1.31952C613.083 2.16314 613.558 3.30694 613.559 4.5V53.5C613.558 54.6931 613.083 55.8369 612.24 56.6805C611.396 57.5241 610.252 57.9987 609.059 58Z" fill="#F2F2F2"/>
<path id="Vector_38" d="M613.059 9.5H593.059V13.5H613.059V9.5Z" fill="#CCCCCC"/>
<path id="Vector_39" d="M613.059 40.5H593.059V44.5H613.059V40.5Z" fill="#CCCCCC"/>
<path id="Vector_40" d="M654 59.5H369C368.735 59.5 368.48 59.3946 368.293 59.2071C368.105 59.0196 368 58.7652 368 58.5C368 58.2348 368.105 57.9804 368.293 57.7929C368.48 57.6053 368.735 57.5 369 57.5H654C654.265 57.5 654.52 57.6053 654.707 57.7929C654.895 57.9804 655 58.2348 655 58.5C655 58.7652 654.895 59.0196 654.707 59.2071C654.52 59.3946 654.265 59.5 654 59.5Z" fill="#CCCCCC"/>
<path id="Vector_41" d="M654 140.5H369C368.735 140.5 368.48 140.395 368.293 140.207C368.105 140.02 368 139.765 368 139.5C368 139.235 368.105 138.98 368.293 138.793C368.48 138.605 368.735 138.5 369 138.5H654C654.265 138.5 654.52 138.605 654.707 138.793C654.895 138.98 655 139.235 655 139.5C655 139.765 654.895 140.02 654.707 140.207C654.52 140.395 654.265 140.5 654 140.5Z" fill="#CCCCCC"/>
<path id="Vector_42" d="M654 221.5H369C368.735 221.5 368.48 221.395 368.293 221.207C368.105 221.02 368 220.765 368 220.5C368 220.235 368.105 219.98 368.293 219.793C368.48 219.605 368.735 219.5 369 219.5H654C654.265 219.5 654.52 219.605 654.707 219.793C654.895 219.98 655 220.235 655 220.5C655 220.765 654.895 221.02 654.707 221.207C654.52 221.395 654.265 221.5 654 221.5Z" fill="#CCCCCC"/>
</g>
<g id="human">
<path id="Vector_43" d="M382 363.5H1C0.734784 363.5 0.480444 363.395 0.292908 363.207C0.105371 363.02 0 362.765 0 362.5C0 362.235 0.105371 361.98 0.292908 361.793C0.480444 361.605 0.734784 361.5 1 361.5H382C382.265 361.5 382.52 361.605 382.707 361.793C382.895 361.98 383 362.235 383 362.5C383 362.765 382.895 363.02 382.707 363.207C382.52 363.395 382.265 363.5 382 363.5Z" fill="#3F3D56"/>
<path id="Vector_44" d="M199.059 232.5C213.971 232.5 226.059 220.412 226.059 205.5C226.059 190.588 213.971 178.5 199.059 178.5C184.147 178.5 172.059 190.588 172.059 205.5C172.059 220.412 184.147 232.5 199.059 232.5Z" fill="#2F2E41"/>
<path id="Vector_45" d="M173.405 378.826L172.69 366.588L219.556 358.003L220.612 376.067L173.405 378.826Z" fill="#FFB8B8"/>
<path id="Vector_46" d="M175.675 357.641L177.055 381.245L162.194 382.113L159.945 343.648C161.897 343.534 163.852 343.806 165.699 344.447C167.545 345.089 169.248 346.087 170.708 347.387C172.169 348.686 173.359 350.261 174.212 352.02C175.064 353.779 175.561 355.689 175.675 357.641Z" fill="#2F2E41"/>
<path id="Vector_47" d="M193.789 378.714L186.004 388.185L145.768 362.666L157.257 348.688L193.789 378.714Z" fill="#FFB8B8"/>
<path id="Vector_48" d="M177.737 392.726L192.751 374.46L204.251 383.913L179.785 413.679C178.275 412.438 177.024 410.911 176.104 409.187C175.184 407.462 174.612 405.573 174.422 403.627C174.232 401.681 174.427 399.717 174.996 397.847C175.564 395.976 176.496 394.236 177.737 392.726Z" fill="#2F2E41"/>
<path id="Vector_49" d="M171.387 334.67L166.067 359.749C165.944 360.326 165.951 360.924 166.087 361.498C166.223 362.073 166.484 362.61 166.852 363.072C167.219 363.533 167.685 363.908 168.215 364.168C168.744 364.429 169.325 364.569 169.915 364.578L222.213 365.422C222.803 365.431 223.387 365.31 223.924 365.068C224.462 364.825 224.939 364.467 225.321 364.018C225.704 363.569 225.982 363.042 226.137 362.473C226.292 361.904 226.319 361.308 226.217 360.727L221.642 334.805C221.479 333.879 220.994 333.04 220.274 332.436C219.554 331.831 218.643 331.5 217.703 331.5H175.3C174.383 331.5 173.494 331.815 172.782 332.392C172.069 332.969 171.577 333.773 171.387 334.67Z" fill="#2F2E41"/>
<path id="Vector_50" d="M180.059 343.5C180.059 343.5 129.059 311.5 119.059 328.5C114.059 337 116.559 345.25 120.309 351.375C123.789 356.952 128.785 361.423 134.712 364.266L176.059 384.5L191.059 368.5L181.059 359.5L180.059 343.5Z" fill="#2F2E41"/>
<path id="Vector_51" d="M206.059 338.5C206.059 338.5 272.059 319.5 259.059 355.5C246.059 391.5 197.059 377.5 197.059 377.5L192.059 362.5L209.059 350.5L206.059 338.5Z" fill="#2F2E41"/>
<path id="Vector_52" d="M199.398 236.226C212.962 236.226 223.959 225.23 223.959 211.665C223.959 198.101 212.962 187.104 199.398 187.104C185.833 187.104 174.837 198.101 174.837 211.665C174.837 225.23 185.833 236.226 199.398 236.226Z" fill="#FFB8B8"/>
<path id="Vector_53" d="M200.685 342.469C190.479 342.314 180.325 340.977 170.427 338.482L170.135 338.402L156.429 275.357C155.196 269.817 156.035 264.018 158.786 259.054C161.537 254.09 166.011 250.305 171.362 248.414C187.892 242.483 205.908 242.124 222.662 247.39H222.662C228.284 249.201 233.015 253.066 235.913 258.212C238.811 263.358 239.663 269.408 238.297 275.154L222.989 338.35L222.773 338.452C216.411 341.466 208.456 342.469 200.685 342.469Z" fill="#CCCCCC"/>
<path id="Vector_54" d="M182.274 347.366C182.772 345.983 183.567 344.726 184.603 343.683C185.64 342.64 186.892 341.837 188.272 341.331C189.652 340.824 191.126 340.627 192.591 340.751C194.056 340.876 195.475 341.321 196.75 342.054L223.736 318.63L226.178 337.038L200.177 356.46C198.804 358.519 196.723 360.003 194.328 360.631C191.934 361.258 189.393 360.986 187.186 359.865C184.98 358.744 183.261 356.852 182.355 354.549C181.45 352.245 181.421 349.69 182.274 347.366Z" fill="#FFB8B8"/>
<path id="Vector_55" d="M208.012 352.476C207.573 352.475 207.136 352.411 206.716 352.285C206.033 352.086 205.408 351.727 204.892 351.237C204.377 350.747 203.986 350.141 203.753 349.469L200.496 340.24C200.191 339.387 200.152 338.462 200.385 337.587C200.617 336.711 201.11 335.927 201.798 335.338L238.567 313.264L224.073 248.603L224.442 248.514C224.592 248.477 239.442 245.097 245.527 261.324C249.789 272.689 265.559 297.401 264.446 314.101C264.235 317.441 262.904 320.612 260.668 323.103C258.432 325.594 255.422 327.259 252.124 327.828L210.736 351.541C209.957 352.145 208.999 352.474 208.012 352.476Z" fill="#CCCCCC"/>
<path id="Vector_56" d="M212.136 345.173C211.638 343.789 210.843 342.532 209.807 341.489C208.771 340.446 207.519 339.644 206.139 339.137C204.759 338.631 203.284 338.433 201.819 338.558C200.355 338.683 198.935 339.128 197.661 339.86L170.674 316.436L168.233 334.844L194.234 354.267C195.607 356.326 197.688 357.81 200.082 358.437C202.476 359.065 205.017 358.792 207.224 357.671C209.431 356.55 211.15 354.659 212.055 352.355C212.96 350.052 212.989 347.496 212.136 345.173Z" fill="#FFB8B8"/>
<path id="Vector_57" d="M189.106 352.476C188.12 352.474 187.162 352.145 186.382 351.541L141.994 329.828C138.696 329.259 135.686 327.594 133.45 325.103C131.214 322.612 129.883 319.441 129.672 316.101C128.559 299.401 147.329 272.689 151.591 261.324C157.676 245.097 172.526 248.476 172.677 248.514L173.045 248.603L155.551 315.264L195.32 335.338C196.008 335.927 196.501 336.711 196.733 337.587C196.966 338.462 196.927 339.387 196.622 340.24L193.365 349.469C193.132 350.141 192.741 350.747 192.226 351.237C191.71 351.727 191.085 352.086 190.402 352.285C189.982 352.411 189.545 352.475 189.106 352.476Z" fill="#CCCCCC"/>
<path id="Vector_58" d="M174.591 210.666C173.135 206.973 175.523 202.573 179.066 200.785C182.609 198.996 186.885 199.336 190.675 200.515C193.859 201.506 196.844 203.041 199.951 204.254C203.015 205.611 206.361 206.207 209.704 205.99C213.019 205.616 216.317 203.758 217.673 200.71C219.079 197.552 218.123 193.697 215.958 191.002C213.655 188.396 210.674 186.48 207.346 185.467C200.039 182.892 191.598 182.817 184.814 186.559C178.03 190.302 173.42 198.27 174.822 205.889" fill="#2F2E41"/>
</g>
<g id="apple">
<path id="Vector_59" d="M314.409 370.901C314.409 377.478 309.077 380.467 302.5 380.467C295.923 380.467 290.591 377.478 290.591 370.901C290.591 364.324 293.238 356.649 302.5 359.296C311.762 355.326 314.409 364.324 314.409 370.901Z" fill="#FF6584"/>
<path id="Vector_60" d="M301.92 362.377C301.457 362.378 301.009 362.21 300.661 361.904C300.313 361.599 300.088 361.177 300.029 360.718C299.635 357.436 297.461 351.01 296.545 348.399L296.545 348.398C296.452 348.139 296.424 347.861 296.462 347.588C296.501 347.315 296.604 347.056 296.765 346.832C296.919 346.632 297.113 346.467 297.335 346.347C297.557 346.227 297.802 346.156 298.054 346.138C298.305 346.12 298.558 346.155 298.795 346.241C299.032 346.328 299.248 346.464 299.428 346.64C299.59 346.809 299.715 347.009 299.795 347.229C299.876 347.449 299.91 347.682 299.897 347.916C299.717 351.267 302.16 356.681 303.632 359.61C303.771 359.886 303.84 360.192 303.835 360.501C303.83 360.81 303.749 361.114 303.601 361.385C303.452 361.656 303.24 361.887 302.982 362.058C302.725 362.229 302.429 362.335 302.122 362.366C302.055 362.374 301.987 362.377 301.92 362.377Z" fill="#3F3D56"/>
<path id="Vector_61" d="M310.732 354.985C314.866 351.602 311.623 344.678 306.449 346.007C305.752 346.173 305.111 346.516 304.585 347.001C301.411 349.999 300.919 357.67 300.919 357.67C300.919 357.67 306.524 358.43 310.732 354.985Z" fill="#3F3D56"/>
</g>
<g id="computer">
<path id="Vector_62" d="M238 361H149C147.144 360.998 145.365 360.26 144.053 358.947C142.74 357.635 142.002 355.856 142 354V305C142.002 303.144 142.74 301.365 144.053 300.053C145.365 298.74 147.144 298.002 149 298H238C239.856 298.002 241.635 298.74 242.947 300.053C244.26 301.365 244.998 303.144 245 305V354C244.998 355.856 244.26 357.635 242.947 358.947C241.635 360.26 239.856 360.998 238 361V361Z" fill="#1976D2"/>
<path id="Vector_63" d="M193.5 335.5C196.814 335.5 199.5 332.814 199.5 329.5C199.5 326.186 196.814 323.5 193.5 323.5C190.186 323.5 187.5 326.186 187.5 329.5C187.5 332.814 190.186 335.5 193.5 335.5Z" fill="white"/>
</g>
<g id="flower">
<path id="Vector_64" d="M419.904 130.923C421.14 117.617 424.552 104.605 430.005 92.4055C431.525 89.0105 433.197 85.6903 435.023 82.4448C435.115 82.275 435.137 82.0764 435.085 81.8907C435.032 81.705 434.91 81.5468 434.744 81.4495C434.577 81.3521 434.379 81.3233 434.192 81.369C434.005 81.4147 433.842 81.5314 433.739 81.6945C427.1 93.5155 422.449 106.347 419.972 119.677C419.283 123.399 418.765 127.148 418.418 130.923C418.33 131.875 419.817 131.869 419.904 130.923V130.923Z" fill="#1976D2"/>
<path id="Vector_65" d="M438.623 84.8288C443.823 84.8288 448.038 80.6138 448.038 75.4144C448.038 70.215 443.823 66 438.623 66C433.424 66 429.209 70.215 429.209 75.4144C429.209 80.6138 433.424 84.8288 438.623 84.8288Z" fill="#1976D2"/>
<path id="Vector_66" d="M420.867 131.173C421.669 122.541 423.883 114.099 427.42 106.185C428.406 103.982 429.491 101.828 430.676 99.7229C430.735 99.6128 430.749 99.4839 430.715 99.3635C430.682 99.243 430.602 99.1404 430.494 99.0773C430.386 99.0141 430.258 98.9954 430.137 99.0251C430.015 99.0547 429.91 99.1304 429.843 99.2362C425.536 106.905 422.518 115.23 420.911 123.877C420.464 126.292 420.128 128.724 419.903 131.173C419.846 131.791 420.811 131.787 420.867 131.173V131.173Z" fill="#1976D2"/>
<path id="Vector_67" d="M433.011 101.27C436.384 101.27 439.119 98.5351 439.119 95.1619C439.119 91.7888 436.384 89.0544 433.011 89.0544C429.638 89.0544 426.904 91.7888 426.904 95.1619C426.904 98.5351 429.638 101.27 433.011 101.27Z" fill="#1976D2"/>
<path id="Vector_68" d="M419.65 130.596C414.973 123.297 411.526 115.28 409.448 106.864C408.871 104.521 408.401 102.155 408.04 99.766C408.019 99.6426 407.951 99.5322 407.851 99.458C407.75 99.3838 407.624 99.3516 407.5 99.3682C407.376 99.3849 407.264 99.4491 407.186 99.5472C407.108 99.6454 407.072 99.7699 407.084 99.8944C408.405 108.59 411.146 117.01 415.197 124.817C416.33 126.996 417.561 129.12 418.89 131.189C419.225 131.712 419.983 131.115 419.65 130.596Z" fill="#1976D2"/>
<path id="Vector_69" d="M407.077 100.841C410.45 100.841 413.184 98.1063 413.184 94.7332C413.184 91.3601 410.45 88.6257 407.077 88.6257C403.703 88.6257 400.969 91.3601 400.969 94.7332C400.969 98.1063 403.703 100.841 407.077 100.841Z" fill="#1976D2"/>
<path id="Vector_70" d="M400.901 136V124C400.902 122.807 401.376 121.663 402.22 120.819C403.064 119.976 404.207 119.501 405.401 119.5H433.401C434.594 119.501 435.737 119.976 436.581 120.819C437.425 121.663 437.899 122.807 437.901 124V136C437.899 137.193 437.425 138.337 436.581 139.18C435.737 140.024 434.594 140.499 433.401 140.5H405.401C404.207 140.499 403.064 140.024 402.22 139.18C401.376 138.337 400.902 137.193 400.901 136Z" fill="#1976D2"/>
<path id="Vector_71" d="M615.345 211.423C616.581 198.117 619.993 185.105 625.446 172.906C626.966 169.511 628.638 166.19 630.464 162.945C630.556 162.775 630.578 162.576 630.525 162.391C630.473 162.205 630.351 162.047 630.185 161.949C630.018 161.852 629.82 161.823 629.633 161.869C629.446 161.915 629.283 162.031 629.18 162.195C622.541 174.015 617.89 186.847 615.413 200.177C614.724 203.899 614.206 207.648 613.859 211.423C613.771 212.375 615.258 212.369 615.345 211.423V211.423Z" fill="#1976D2"/>
<path id="Vector_72" d="M634.064 165.329C639.264 165.329 643.479 161.114 643.479 155.914C643.479 150.715 639.264 146.5 634.064 146.5C628.865 146.5 624.65 150.715 624.65 155.914C624.65 161.114 628.865 165.329 634.064 165.329Z" fill="#1976D2"/>
<path id="Vector_73" d="M616.308 211.673C617.11 203.041 619.324 194.599 622.861 186.685C623.847 184.482 624.932 182.328 626.117 180.223C626.176 180.113 626.19 179.984 626.156 179.863C626.123 179.743 626.043 179.64 625.935 179.577C625.827 179.514 625.699 179.495 625.577 179.525C625.456 179.555 625.351 179.63 625.284 179.736C620.977 187.405 617.959 195.73 616.352 204.377C615.905 206.792 615.569 209.224 615.344 211.673C615.287 212.291 616.252 212.287 616.308 211.673V211.673Z" fill="#1976D2"/>
<path id="Vector_74" d="M628.452 181.77C631.825 181.77 634.56 179.035 634.56 175.662C634.56 172.289 631.825 169.554 628.452 169.554C625.079 169.554 622.345 172.289 622.345 175.662C622.345 179.035 625.079 181.77 628.452 181.77Z" fill="#1976D2"/>
<path id="Vector_75" d="M615.091 211.096C610.414 203.797 606.967 195.78 604.889 187.364C604.312 185.021 603.842 182.655 603.481 180.266C603.46 180.143 603.392 180.032 603.292 179.958C603.191 179.884 603.065 179.852 602.941 179.868C602.817 179.885 602.704 179.949 602.627 180.047C602.549 180.145 602.513 180.27 602.525 180.394C603.846 189.09 606.587 197.51 610.638 205.317C611.771 207.496 613.002 209.62 614.331 211.689C614.666 212.212 615.424 211.615 615.091 211.096Z" fill="#1976D2"/>
<path id="Vector_76" d="M602.518 181.341C605.891 181.341 608.625 178.606 608.625 175.233C608.625 171.86 605.891 169.126 602.518 169.126C599.144 169.126 596.41 171.86 596.41 175.233C596.41 178.606 599.144 181.341 602.518 181.341Z" fill="#1976D2"/>
<path id="Vector_77" d="M596.341 216.5V204.5C596.343 203.307 596.817 202.163 597.661 201.319C598.505 200.476 599.648 200.001 600.841 200H628.841C630.034 200.001 631.178 200.476 632.022 201.319C632.866 202.163 633.34 203.307 633.341 204.5V216.5C633.34 217.693 632.866 218.837 632.022 219.68C631.178 220.524 630.034 220.999 628.841 221H600.841C599.648 220.999 598.505 220.524 597.661 219.68C596.817 218.837 596.343 217.693 596.341 216.5Z" fill="#1976D2"/>
<path id="Vector_78" d="M36.0039 353.318C37.2394 340.013 40.6516 327.001 46.1044 314.801C47.6242 311.406 49.2969 308.086 51.1226 304.84C51.2141 304.671 51.2362 304.472 51.1841 304.286C51.132 304.101 51.0098 303.943 50.8433 303.845C50.6768 303.748 50.479 303.719 50.2916 303.765C50.1043 303.81 49.942 303.927 49.839 304.09C43.1998 315.911 38.5485 328.743 36.0712 342.073C35.3821 345.795 34.8642 349.544 34.5174 353.318C34.4293 354.271 35.9164 354.265 36.0039 353.318V353.318Z" fill="#1976D2"/>
<path id="Vector_79" d="M54.7229 307.224C59.9223 307.224 64.1372 303.009 64.1372 297.81C64.1372 292.611 59.9223 288.396 54.7229 288.396C49.5234 288.396 45.3084 292.611 45.3084 297.81C45.3084 303.009 49.5234 307.224 54.7229 307.224Z" fill="#1976D2"/>
<path id="Vector_80" d="M36.9669 353.569C37.7684 344.937 39.9821 336.495 43.5196 328.581C44.5055 326.378 45.5907 324.224 46.7751 322.119C46.8345 322.008 46.8488 321.88 46.815 321.759C46.7812 321.639 46.7019 321.536 46.5939 321.473C46.4859 321.41 46.3576 321.391 46.236 321.421C46.1145 321.45 46.0092 321.526 45.9424 321.632C41.6352 329.301 38.6177 337.625 37.0106 346.273C36.5635 348.688 36.2275 351.12 36.0026 353.569C35.9454 354.186 36.9102 354.182 36.967 353.569H36.9669Z" fill="#1976D2"/>
<path id="Vector_81" d="M49.1108 323.665C52.4839 323.665 55.2183 320.931 55.2183 317.558C55.2183 314.185 52.4839 311.45 49.1108 311.45C45.7377 311.45 43.0032 314.185 43.0032 317.558C43.0032 320.931 45.7377 323.665 49.1108 323.665Z" fill="#1976D2"/>
<path id="Vector_82" d="M35.7498 352.992C31.0726 345.693 27.626 337.675 25.5474 329.259C24.9701 326.916 24.5009 324.55 24.1397 322.162C24.1189 322.038 24.0509 321.928 23.9502 321.854C23.8494 321.779 23.7238 321.747 23.5997 321.764C23.4757 321.781 23.363 321.845 23.2854 321.943C23.2078 322.041 23.1714 322.166 23.1838 322.29C24.5044 330.986 27.2453 339.406 31.2969 347.213C32.4297 349.392 33.6605 351.516 34.9894 353.585C35.3243 354.107 36.0825 353.511 35.7498 352.992V352.992Z" fill="#1976D2"/>
<path id="Vector_83" d="M23.1761 323.236C26.5492 323.236 29.2837 320.502 29.2837 317.129C29.2837 313.756 26.5492 311.021 23.1761 311.021C19.803 311.021 17.0686 313.756 17.0686 317.129C17.0686 320.502 19.803 323.236 23.1761 323.236Z" fill="#1976D2"/>
<path id="Vector_84" d="M17 358.396V346.396C17.0013 345.203 17.4759 344.059 18.3195 343.215C19.1631 342.372 20.3069 341.897 21.5 341.896H49.5C50.6931 341.897 51.8369 342.372 52.6805 343.215C53.5241 344.059 53.9987 345.203 54 346.396V358.396C53.9987 359.589 53.5241 360.733 52.6805 361.576C51.8369 362.42 50.6931 362.894 49.5 362.896H21.5C20.3069 362.894 19.1631 362.42 18.3195 361.576C17.4759 360.733 17.0013 359.589 17 358.396V358.396Z" fill="#1976D2"/>
</g>
</g>
<defs>
<clipPath id="clip0">
<rect width="655" height="413.68" fill="white"/>
</clipPath>
</defs>
</svg>
